<?xml version="1.0" encoding="UTF-8"?>
<svg id="Layer_1" xmlns="http://www.w3.org/2000/svg" viewBox="0 0 12.59 42.27">
  <defs>
    <style>
      .cls-1 {
        fill: #57bc73;
      }
    </style>
  </defs>
  <polygon class="cls-1" points="2.64 .5 .15 2.49 3.64 5.97 .15 10.03 2.64 12.44 6.12 8.95 10.1 12.44 12.59 9.95 8.86 6.22 12.59 2.49 10.1 0 6.62 3.48 3.14 0 2.64 .5"/>
  <polygon class="cls-1" points="2.49 15.37 0 17.36 3.48 20.85 0 24.91 2.49 27.31 5.97 23.83 9.95 27.31 12.44 24.83 8.71 21.1 12.44 17.36 9.95 14.88 6.47 18.36 2.98 14.88 2.49 15.37"/>
  <polygon class="cls-1" points="2.49 30.33 0 32.32 3.48 35.8 0 39.87 2.49 42.27 5.97 38.79 9.95 42.27 12.44 39.78 8.71 36.05 12.44 32.32 9.95 29.83 6.47 33.32 2.98 29.83 2.49 30.33"/>
</svg>